<svg width="224" height="120" viewBox="0 0 119 48" fill="none" xmlns="http://www.w3.org/2000/svg">
<g clip-path="url(#clip0_217_2)">
<path d="M21.7396 46.7701H20.8496L20.6796 47.2801H20.1396L21.0596 44.8101H21.5296L22.4596 47.2801H21.9196L21.7496 46.7701H21.7396ZM20.9796 46.3601H21.5996L21.2896 45.4301L20.9796 46.3601Z" fill="#788993"/>
<path d="M24.4104 46.4101V47.2801H23.9004V44.8101H24.8604C25.0504 44.8101 25.2104 44.8401 25.3504 44.9101C25.4904 44.9801 25.6004 45.0701 25.6804 45.2001C25.7604 45.3301 25.7904 45.4701 25.7904 45.6301C25.7904 45.8701 25.7104 46.0601 25.5404 46.2001C25.3704 46.3401 25.1404 46.4101 24.8504 46.4101H24.4004H24.4104ZM24.4104 46.0001H24.8704C25.0004 46.0001 25.1104 45.9701 25.1804 45.9001C25.2504 45.8401 25.2904 45.7501 25.2904 45.6301C25.2904 45.5101 25.2504 45.4101 25.1804 45.3401C25.1104 45.2701 25.0104 45.2301 24.8804 45.2201H24.4104V46.0001Z" fill="#788993"/>
<path d="M27.6195 46.7701H26.7295L26.5595 47.2801H26.0195L26.9395 44.8101H27.4095L28.3395 47.2801H27.7995L27.6295 46.7701H27.6195ZM26.8595 46.3601H27.4795L27.1695 45.4301L26.8595 46.3601Z" fill="#788993"/>
<path d="M29.7598 46.3799H29.3498V47.2899H28.8398V44.8199H29.7598C30.0498 44.8199 30.2798 44.8899 30.4398 45.0199C30.5998 45.1499 30.6798 45.3299 30.6798 45.5699C30.6798 45.7399 30.6398 45.8799 30.5698 45.9899C30.4998 46.0999 30.3898 46.1899 30.2398 46.2599L30.7798 47.2699V47.2899H30.2298L29.7698 46.3799H29.7598ZM29.3498 45.9699H29.7598C29.8898 45.9699 29.9898 45.9399 30.0598 45.8699C30.1298 45.8099 30.1698 45.7199 30.1698 45.5999C30.1698 45.4799 30.1398 45.3899 30.0698 45.3199C29.9998 45.2499 29.8998 45.2199 29.7698 45.2199H29.3598V45.9599L29.3498 45.9699Z" fill="#788993"/>
<path d="M33.1899 45.2201H32.4299V47.2801H31.9199V45.2201H31.1699V44.8101H33.1799V45.2201H33.1899Z" fill="#788993"/>
<path d="M35.7405 47.2801H35.2305L34.2405 45.6501V47.2801H33.7305V44.8101H34.2405L35.2305 46.4401V44.8101H35.7405V47.2801Z" fill="#788993"/>
<path d="M37.9597 46.2101H36.9797V46.8701H38.1297V47.2801H36.4697V44.8101H38.1197V45.2201H36.9797V45.8101H37.9597V46.2101Z" fill="#788993"/>
<path d="M39.6505 46.3799H39.2405V47.2899H38.7305V44.8199H39.6505C39.9405 44.8199 40.1705 44.8899 40.3305 45.0199C40.4905 45.1499 40.5705 45.3299 40.5705 45.5699C40.5705 45.7399 40.5305 45.8799 40.4605 45.9899C40.3905 46.0999 40.2805 46.1899 40.1305 46.2599L40.6705 47.2699V47.2899H40.1205L39.6605 46.3799H39.6505ZM39.2405 45.9699H39.6505C39.7805 45.9699 39.8805 45.9399 39.9505 45.8699C40.0205 45.8099 40.0605 45.7199 40.0605 45.5999C40.0605 45.4799 40.0305 45.3899 39.9605 45.3199C39.8905 45.2499 39.7905 45.2199 39.6605 45.2199H39.2505V45.9599L39.2405 45.9699Z" fill="#788993"/>
<path d="M44.1096 46.46C44.0896 46.73 43.9896 46.94 43.8196 47.09C43.6396 47.24 43.4096 47.32 43.1196 47.32C42.7996 47.32 42.5496 47.21 42.3696 47C42.1896 46.79 42.0996 46.49 42.0996 46.12V45.97C42.0996 45.73 42.1396 45.52 42.2296 45.34C42.3096 45.16 42.4296 45.02 42.5896 44.92C42.7496 44.82 42.9296 44.77 43.1296 44.77C43.4196 44.77 43.6496 44.85 43.8196 45C43.9896 45.15 44.0996 45.37 44.1196 45.64H43.6096C43.5996 45.48 43.5496 45.36 43.4796 45.29C43.4096 45.22 43.2896 45.18 43.1296 45.18C42.9596 45.18 42.8296 45.24 42.7496 45.36C42.6696 45.48 42.6196 45.67 42.6196 45.93V46.12C42.6196 46.39 42.6596 46.58 42.7396 46.71C42.8196 46.84 42.9496 46.9 43.1196 46.9C43.2796 46.9 43.3896 46.86 43.4696 46.79C43.5496 46.72 43.5896 46.61 43.5996 46.46H44.1096Z" fill="#788993"/>
<path d="M46.7397 46.1C46.7397 46.34 46.6996 46.56 46.6096 46.74C46.5196 46.92 46.3997 47.06 46.2397 47.16C46.0797 47.26 45.8996 47.31 45.6896 47.31C45.4796 47.31 45.2996 47.26 45.1396 47.16C44.9796 47.06 44.8496 46.92 44.7696 46.74C44.6896 46.56 44.6396 46.35 44.6396 46.11V45.99C44.6396 45.75 44.6796 45.53 44.7696 45.35C44.8596 45.17 44.9796 45.02 45.1396 44.92C45.2996 44.82 45.4796 44.77 45.6896 44.77C45.8996 44.77 46.0797 44.82 46.2397 44.92C46.3997 45.02 46.5196 45.16 46.6096 45.35C46.6996 45.54 46.7397 45.75 46.7397 45.99V46.1ZM46.2197 45.99C46.2197 45.73 46.1697 45.53 46.0797 45.4C45.9897 45.27 45.8496 45.2 45.6796 45.2C45.5096 45.2 45.3796 45.27 45.2796 45.4C45.1896 45.53 45.1396 45.73 45.1396 45.99V46.11C45.1396 46.36 45.1896 46.56 45.2796 46.7C45.3696 46.84 45.5096 46.91 45.6796 46.91C45.8496 46.91 45.9796 46.84 46.0696 46.71C46.1596 46.58 46.2096 46.38 46.2096 46.12V46L46.2197 45.99Z" fill="#788993"/>
<path d="M48.0499 44.8101L48.6899 46.6001L49.3199 44.8101H49.9899V47.2801H49.4799V46.6001L49.5299 45.4301L48.8599 47.2701H48.5099L47.8399 45.4301L47.8899 46.6001V47.2801H47.3799V44.8101H48.0499Z" fill="#788993"/>
<path d="M51.22 46.4101V47.2801H50.71V44.8101H51.67C51.86 44.8101 52.02 44.8401 52.16 44.9101C52.3 44.9801 52.41 45.0701 52.49 45.2001C52.57 45.3301 52.6 45.4701 52.6 45.6301C52.6 45.8701 52.52 46.0601 52.35 46.2001C52.18 46.3401 51.95 46.4101 51.66 46.4101H51.21H51.22ZM51.22 46.0001H51.68C51.81 46.0001 51.92 45.9701 51.99 45.9001C52.06 45.8401 52.1 45.7501 52.1 45.6301C52.1 45.5101 52.06 45.4101 51.99 45.3401C51.92 45.2701 51.82 45.2301 51.69 45.2201H51.22V46.0001Z" fill="#788993"/>
<path d="M54.4301 46.7701H53.5401L53.3701 47.2801H52.8301L53.7501 44.8101H54.2201L55.1501 47.2801H54.6101L54.4401 46.7701H54.4301ZM53.6701 46.3601H54.2901L53.9801 45.4301L53.6701 46.3601Z" fill="#788993"/>
<path d="M57.6702 47.2801H57.1602L56.1702 45.6501V47.2801H55.6602V44.8101H56.1702L57.1602 46.4401V44.8101H57.6702V47.2801Z" fill="#788993"/>
<path d="M59.2497 45.9201L59.7597 44.8101H60.3197L59.5097 46.3901V47.2901H58.9897V46.3901L58.1797 44.8101H58.7397L59.2497 45.9201Z" fill="#788993"/>
<path d="M63.8002 46.1C63.8002 46.34 63.7602 46.56 63.6702 46.74C63.5802 46.92 63.4602 47.06 63.3002 47.16C63.1402 47.26 62.9602 47.31 62.7502 47.31C62.5402 47.31 62.3602 47.26 62.2002 47.16C62.0402 47.06 61.9102 46.92 61.8302 46.74C61.7502 46.56 61.7002 46.35 61.7002 46.11V45.99C61.7002 45.75 61.7402 45.53 61.8302 45.35C61.9202 45.17 62.0402 45.02 62.2002 44.92C62.3602 44.82 62.5402 44.77 62.7502 44.77C62.9602 44.77 63.1402 44.82 63.3002 44.92C63.4602 45.02 63.5802 45.16 63.6702 45.35C63.7602 45.54 63.8002 45.75 63.8002 45.99V46.1ZM63.2802 45.99C63.2802 45.73 63.2302 45.53 63.1402 45.4C63.0502 45.27 62.9102 45.2 62.7402 45.2C62.5702 45.2 62.4402 45.27 62.3402 45.4C62.2502 45.53 62.2002 45.73 62.2002 45.99V46.11C62.2002 46.36 62.2502 46.56 62.3402 46.7C62.4302 46.84 62.5702 46.91 62.7402 46.91C62.9102 46.91 63.0402 46.84 63.1302 46.71C63.2202 46.58 63.2702 46.38 63.2702 46.12V46L63.2802 45.99Z" fill="#788993"/>
<path d="M65.9304 46.2701H64.9504V47.2801H64.4404V44.8101H66.0504V45.2201H64.9504V45.8601H65.9304V46.2701Z" fill="#788993"/>
<path d="M69.0496 46.2701H68.0696V47.2801H67.5596V44.8101H69.1696V45.2201H68.0696V45.8601H69.0496V46.2701Z" fill="#788993"/>
<path d="M70.2297 46.8701H71.3097V47.2801H69.7197V44.8101H70.2297V46.8701Z" fill="#788993"/>
<path d="M73.3396 46.2101H72.3596V46.8701H73.5096V47.2801H71.8496V44.8101H73.4996V45.2201H72.3496V45.8101H73.3296V46.2101H73.3396Z" fill="#788993"/>
<path d="M75.6101 46.2101H74.6301V46.8701H75.7801V47.2801H74.1201V44.8101H75.7701V45.2201H74.6201V45.8101H75.6001V46.2101H75.6101Z" fill="#788993"/>
<path d="M78.2602 45.2201H77.5002V47.2801H76.9902V45.2201H76.2402V44.8101H78.2502V45.2201H78.2602Z" fill="#788993"/>
<path d="M80.6798 46.3799H80.2698V47.2899H79.7598V44.8199H80.6798C80.9698 44.8199 81.1998 44.8899 81.3598 45.0199C81.5198 45.1499 81.5998 45.3299 81.5998 45.5699C81.5998 45.7399 81.5598 45.8799 81.4898 45.9899C81.4198 46.0999 81.3098 46.1899 81.1598 46.2599L81.6998 47.2699V47.2899H81.1498L80.6898 46.3799H80.6798ZM80.2698 45.9699H80.6798C80.8098 45.9699 80.9098 45.9399 80.9798 45.8699C81.0498 45.8099 81.0898 45.7199 81.0898 45.5999C81.0898 45.4799 81.0598 45.3899 80.9898 45.3199C80.9198 45.2499 80.8198 45.2199 80.6798 45.2199H80.2698V45.9599V45.9699Z" fill="#788993"/>
<path d="M83.74 46.2101H82.76V46.8701H83.91V47.2801H82.25V44.8101H83.9V45.2201H82.75V45.8101H83.73V46.2101H83.74Z" fill="#788993"/>
<path d="M85.7604 46.63C85.7604 46.53 85.7304 46.46 85.6604 46.41C85.5904 46.36 85.4704 46.3 85.2904 46.25C85.1104 46.19 84.9704 46.14 84.8704 46.08C84.5904 45.93 84.4503 45.72 84.4503 45.47C84.4503 45.34 84.4903 45.22 84.5603 45.11C84.6303 45.01 84.7403 44.92 84.8803 44.86C85.0203 44.8 85.1803 44.77 85.3503 44.77C85.5203 44.77 85.6804 44.8 85.8204 44.87C85.9604 44.93 86.0704 45.02 86.1404 45.14C86.2204 45.26 86.2504 45.39 86.2504 45.54H85.7403C85.7403 45.43 85.7003 45.34 85.6303 45.28C85.5603 45.22 85.4604 45.19 85.3304 45.19C85.2004 45.19 85.1104 45.22 85.0404 45.27C84.9704 45.32 84.9404 45.39 84.9404 45.48C84.9404 45.56 84.9803 45.63 85.0603 45.68C85.1403 45.73 85.2603 45.79 85.4203 45.83C85.7103 45.92 85.9204 46.03 86.0504 46.15C86.1804 46.28 86.2504 46.44 86.2504 46.63C86.2504 46.84 86.1704 47.01 86.0104 47.13C85.8504 47.25 85.6304 47.31 85.3604 47.31C85.1704 47.31 85.0003 47.28 84.8403 47.21C84.6803 47.14 84.5604 47.05 84.4804 46.92C84.4004 46.79 84.3604 46.66 84.3604 46.5H84.8704C84.8704 46.77 85.0304 46.91 85.3604 46.91C85.4804 46.91 85.5804 46.89 85.6404 46.84C85.7104 46.79 85.7403 46.72 85.7403 46.63H85.7604Z" fill="#788993"/>
<path d="M87.4104 46.4101V47.2801H86.9004V44.8101H87.8604C88.0504 44.8101 88.2104 44.8401 88.3504 44.9101C88.4904 44.9801 88.6004 45.0701 88.6804 45.2001C88.7604 45.3301 88.7904 45.4701 88.7904 45.6301C88.7904 45.8701 88.7104 46.0601 88.5404 46.2001C88.3704 46.3401 88.1404 46.4101 87.8504 46.4101H87.4004H87.4104ZM87.4104 46.0001H87.8704C88.0004 46.0001 88.1104 45.9701 88.1804 45.9001C88.2504 45.8401 88.2904 45.7501 88.2904 45.6301C88.2904 45.5101 88.2504 45.4101 88.1804 45.3401C88.1104 45.2701 88.0104 45.2301 87.8804 45.2201H87.4104V46.0001Z" fill="#788993"/>
<path d="M91.4301 46.1C91.4301 46.34 91.3901 46.56 91.3001 46.74C91.2101 46.92 91.0901 47.06 90.9301 47.16C90.7701 47.26 90.5901 47.31 90.3801 47.31C90.1701 47.31 89.9901 47.26 89.8301 47.16C89.6701 47.06 89.5401 46.92 89.4601 46.74C89.3801 46.56 89.3301 46.35 89.3301 46.11V45.99C89.3301 45.75 89.3701 45.53 89.4601 45.35C89.5501 45.17 89.6701 45.02 89.8301 44.92C89.9901 44.82 90.1701 44.77 90.3801 44.77C90.5901 44.77 90.7701 44.82 90.9301 44.92C91.0901 45.02 91.2101 45.16 91.3001 45.35C91.3901 45.54 91.4301 45.75 91.4301 45.99V46.1ZM90.9101 45.99C90.9101 45.73 90.8601 45.53 90.7701 45.4C90.6801 45.27 90.5401 45.2 90.3701 45.2C90.2001 45.2 90.0701 45.27 89.9701 45.4C89.8801 45.53 89.8301 45.73 89.8301 45.99V46.11C89.8301 46.36 89.8801 46.56 89.9701 46.7C90.0601 46.84 90.2001 46.91 90.3701 46.91C90.5401 46.91 90.6701 46.84 90.7601 46.71C90.8501 46.58 90.9001 46.38 90.9001 46.12V46L90.9101 45.99Z" fill="#788993"/>
<path d="M94.0803 47.2801H93.5703L92.5803 45.6501V47.2801H92.0703V44.8101H92.5803L93.5703 46.4401V44.8101H94.0803V47.2801Z" fill="#788993"/>
<path d="M96.0797 46.63C96.0797 46.53 96.0497 46.46 95.9797 46.41C95.9097 46.36 95.7897 46.3 95.6097 46.25C95.4297 46.19 95.2897 46.14 95.1897 46.08C94.9097 45.93 94.7697 45.72 94.7697 45.47C94.7697 45.34 94.8097 45.22 94.8797 45.11C94.9497 45.01 95.0597 44.92 95.1997 44.86C95.3397 44.8 95.4997 44.77 95.6697 44.77C95.8397 44.77 95.9997 44.8 96.1397 44.87C96.2797 44.93 96.3897 45.02 96.4597 45.14C96.5397 45.26 96.5697 45.39 96.5697 45.54H96.0597C96.0597 45.43 96.0197 45.34 95.9497 45.28C95.8797 45.22 95.7797 45.19 95.6497 45.19C95.5197 45.19 95.4297 45.22 95.3597 45.27C95.2897 45.32 95.2597 45.39 95.2597 45.48C95.2597 45.56 95.2997 45.63 95.3797 45.68C95.4597 45.73 95.5797 45.79 95.7397 45.83C96.0297 45.92 96.2397 46.03 96.3697 46.15C96.4997 46.28 96.5697 46.44 96.5697 46.63C96.5697 46.84 96.4897 47.01 96.3297 47.13C96.1697 47.25 95.9497 47.31 95.6797 47.31C95.4897 47.31 95.3197 47.28 95.1597 47.21C94.9997 47.14 94.8797 47.05 94.7997 46.92C94.7197 46.79 94.6797 46.66 94.6797 46.5H95.1897C95.1897 46.77 95.3497 46.91 95.6797 46.91C95.7997 46.91 95.8997 46.89 95.9597 46.84C96.0297 46.79 96.0597 46.72 96.0597 46.63H96.0797Z" fill="#788993"/>
<path d="M98.7097 46.2101H97.7297V46.8701H98.8797V47.2801H97.2197V44.8101H98.8697V45.2201H97.7197V45.8101H98.6997V46.2101H98.7097Z" fill="#788993"/>
<path d="M117.4 41.71H0V41.86H117.4V41.71Z" fill="#788993"/>
<path d="M0.0703125 0.469971H4.38031C7.16031 0.469971 9.05031 0.599971 10.0303 0.849971C11.0103 1.10997 11.7603 1.52997 12.2703 2.10997C12.7803 2.68997 13.1003 3.33997 13.2303 4.05997C13.3603 4.77997 13.4203 6.17997 13.4203 8.27997V16.04C13.4203 18.03 13.3303 19.36 13.1403 20.03C12.9503 20.7 12.6303 21.23 12.1603 21.6C11.6903 21.98 11.1203 22.24 10.4303 22.39C9.75031 22.54 8.71031 22.62 7.34031 22.62H0.0703125V0.469971ZM5.84031 4.25997V18.84C6.67031 18.84 7.18031 18.67 7.37031 18.34C7.56031 18.01 7.66031 17.1 7.66031 15.62V7.00997C7.66031 6.00997 7.63031 5.35997 7.56031 5.07997C7.50031 4.79997 7.35031 4.58997 7.12031 4.45997C6.89031 4.32997 6.46031 4.25997 5.83031 4.25997H5.84031Z" fill="#1D3849"/>
<path d="M25.5395 0.469971L28.8395 22.64H22.9495L22.6395 18.66H20.5795L20.2295 22.64H14.2695L17.1995 0.469971H25.5295H25.5395ZM22.4795 14.73C22.1895 12.22 21.8995 9.10997 21.5995 5.41997C21.0095 9.66997 20.6395 12.77 20.4895 14.73H22.4695H22.4795Z" fill="#1D3849"/>
<path d="M35.5803 0.469971V18.2H39.0903V22.64H29.8203V0.469971H35.5903H35.5803Z" fill="#1D3849"/>
<path d="M61.1998 0.469971L58.6298 22.64H51.4298C50.7698 19.23 50.1898 15.36 49.6898 11.01C49.4598 12.87 48.9198 16.75 48.0798 22.64H40.9198L38.3398 0.469971H43.9398L44.5498 8.20997L45.1398 15.69C45.3498 11.82 45.8798 6.74997 46.7298 0.479971H52.7198C52.7998 1.12997 53.0098 3.56997 53.3498 7.78997L53.9898 16.23C54.3198 10.86 54.8498 5.60997 55.5998 0.479971H61.1998V0.469971Z" fill="#1D3849"/>
<path d="M75.5102 13.45C75.5102 15.68 75.4602 17.26 75.3502 18.18C75.2402 19.11 74.9202 19.95 74.3602 20.72C73.8102 21.49 73.0602 22.08 72.1202 22.49C71.1802 22.9 70.0802 23.11 68.8302 23.11C67.5802 23.11 66.5802 22.92 65.6302 22.53C64.6802 22.14 63.9302 21.56 63.3502 20.78C62.7702 20 62.4302 19.16 62.3202 18.25C62.2102 17.34 62.1602 15.74 62.1602 13.46V9.67001C62.1602 7.44001 62.2102 5.87001 62.3202 4.94001C62.4202 4.01001 62.7502 3.17001 63.3102 2.40001C63.8602 1.63001 64.6102 1.04001 65.5502 0.63001C66.4902 0.22001 67.5902 0.0100098 68.8402 0.0100098C70.0902 0.0100098 71.0902 0.20001 72.0402 0.59001C72.9802 0.98001 73.7402 1.56001 74.3202 2.34001C74.9002 3.12001 75.2402 3.96001 75.3502 4.87001C75.4602 5.78001 75.5102 7.38001 75.5102 9.66001V13.45ZM69.7402 6.16001C69.7402 5.13001 69.6802 4.47001 69.5702 4.18001C69.4602 3.89001 69.2202 3.75001 68.8602 3.75001C68.5602 3.75001 68.3302 3.87001 68.1702 4.10001C68.0102 4.33001 67.9302 5.02001 67.9302 6.16001V16.51C67.9302 17.8 67.9802 18.59 68.0902 18.89C68.2002 19.19 68.4402 19.34 68.8202 19.34C69.2002 19.34 69.4602 19.17 69.5702 18.82C69.6802 18.47 69.7302 17.65 69.7302 16.34V6.16001H69.7402Z" fill="#1D3849"/>
<path d="M77.6602 0.469971H81.7402C84.4602 0.469971 86.3001 0.579971 87.2701 0.779971C88.2301 0.989971 89.0201 1.52997 89.6301 2.38997C90.2401 3.24997 90.5402 4.62997 90.5402 6.51997C90.5402 8.24997 90.3202 9.40997 89.9002 9.99997C89.4702 10.59 88.6302 10.95 87.3702 11.07C88.5102 11.35 89.2802 11.73 89.6702 12.21C90.0602 12.68 90.3102 13.12 90.4002 13.52C90.5002 13.92 90.5402 15.01 90.5402 16.8V22.65H85.1902V15.28C85.1902 14.09 85.1002 13.36 84.9102 13.08C84.7202 12.8 84.2302 12.65 83.4402 12.65V22.65H77.6702V0.469971H77.6602ZM83.4302 4.25997V9.18997C84.0802 9.18997 84.5302 9.09997 84.7902 8.91997C85.0502 8.73997 85.1802 8.15997 85.1802 7.18997V5.96997C85.1802 5.26997 85.0502 4.80997 84.8002 4.58997C84.5502 4.36997 84.0902 4.25997 83.4202 4.25997H83.4302Z" fill="#1D3849"/>
<path d="M104.38 0.469971V4.90997H100.96V22.64H95.2V4.89997H91.79V0.469971H104.39H104.38Z" fill="#1D3849"/>
<path d="M118.95 0.469971V22.64H113.19V13.33H111.46V22.64H105.69V0.469971H111.46V8.39997H113.19V0.469971H118.95Z" fill="#1D3849"/>
<path d="M11.7202 37.0001H8.6302L4.7102 31.5901C4.4202 31.6001 4.1802 31.6101 4.0002 31.6101C3.9302 31.6101 3.8502 31.6101 3.7602 31.6101C3.6702 31.6101 3.5902 31.6101 3.5002 31.6001V34.9601C3.5002 35.6901 3.5802 36.1401 3.7402 36.3201C3.9602 36.5701 4.2802 36.7001 4.7102 36.7001H5.1602V37.0201H0.200195V36.7001H0.640195C1.1302 36.7001 1.4802 36.5401 1.6902 36.2201C1.8102 36.0401 1.8702 35.6301 1.8702 34.9701V27.4901C1.8702 26.7601 1.7902 26.3101 1.6302 26.1301C1.4102 25.8801 1.0802 25.7501 0.640195 25.7501H0.200195V25.4301H4.4202C5.6502 25.4301 6.5602 25.5201 7.1402 25.7001C7.7202 25.8801 8.2202 26.2101 8.6302 26.6901C9.0402 27.1701 9.2402 27.7401 9.2402 28.4101C9.2402 29.1201 9.0102 29.7401 8.5402 30.2601C8.0802 30.7801 7.3602 31.1501 6.3802 31.3701L8.7702 34.6901C9.3202 35.4501 9.7902 35.9601 10.1802 36.2101C10.5702 36.4601 11.0802 36.6201 11.7202 36.6901V37.0101V37.0001ZM3.5002 31.0501C3.6102 31.0501 3.7002 31.0501 3.7802 31.0501C3.8602 31.0501 3.9302 31.0501 3.9802 31.0501C5.0802 31.0501 5.9202 30.8101 6.4802 30.3301C7.0402 29.8501 7.3202 29.2401 7.3202 28.5001C7.3202 27.7601 7.0902 27.1901 6.6402 26.7401C6.1902 26.2901 5.5902 26.0601 4.8402 26.0601C4.5102 26.0601 4.0602 26.1101 3.5002 26.2201V31.0401V31.0501Z" fill="#1D3849"/>
<path d="M15.2202 26.06V30.64H17.7602C18.4202 30.64 18.8602 30.54 19.0802 30.34C19.3802 30.08 19.5402 29.62 19.5702 28.96H19.8902V32.99H19.5702C19.4902 32.43 19.4102 32.06 19.3302 31.91C19.2302 31.71 19.0602 31.55 18.8302 31.44C18.6002 31.33 18.2402 31.27 17.7502 31.27H15.2102V35.09C15.2102 35.6 15.2302 35.91 15.2802 36.02C15.3302 36.13 15.4002 36.22 15.5202 36.28C15.6302 36.35 15.8502 36.38 16.1702 36.38H18.1302C18.7802 36.38 19.2602 36.33 19.5602 36.24C19.8602 36.15 20.1402 35.97 20.4102 35.7C20.7602 35.35 21.1202 34.82 21.4902 34.1H21.8302L20.8302 37H11.9102V36.68H12.3202C12.5902 36.68 12.8502 36.62 13.1002 36.48C13.2802 36.39 13.4102 36.25 13.4702 36.07C13.5402 35.89 13.5702 35.52 13.5702 34.95V27.43C13.5702 26.7 13.5002 26.24 13.3502 26.07C13.1502 25.84 12.8002 25.73 12.3302 25.73H11.9202V25.41H20.8402L20.9702 27.95H20.6402C20.5202 27.34 20.3902 26.92 20.2402 26.69C20.0902 26.46 19.8802 26.29 19.5902 26.17C19.3602 26.08 18.9602 26.04 18.3902 26.04H15.2102L15.2202 26.06Z" fill="#1D3849"/>
<path d="M30.2598 25.16V29.16H29.9398C29.8398 28.39 29.6498 27.78 29.3898 27.32C29.1298 26.86 28.7498 26.5 28.2598 26.24C27.7698 25.97 27.2598 25.84 26.7398 25.84C26.1498 25.84 25.6598 26.02 25.2698 26.38C24.8798 26.74 24.6898 27.15 24.6898 27.61C24.6898 27.96 24.8098 28.28 25.0598 28.57C25.4098 29 26.2498 29.57 27.5798 30.28C28.6598 30.86 29.3998 31.31 29.7898 31.62C30.1798 31.93 30.4898 32.3 30.6998 32.72C30.9098 33.14 31.0198 33.58 31.0198 34.04C31.0198 34.92 30.6798 35.67 29.9998 36.31C29.3198 36.95 28.4498 37.26 27.3698 37.26C27.0298 37.26 26.7198 37.23 26.4198 37.18C26.2398 37.15 25.8798 37.05 25.3198 36.87C24.7698 36.69 24.4098 36.6 24.2698 36.6C24.1298 36.6 24.0098 36.64 23.9298 36.73C23.8498 36.82 23.7898 36.99 23.7498 37.26H23.4298V33.29H23.7498C23.8998 34.12 24.0998 34.74 24.3498 35.15C24.5998 35.56 24.9798 35.91 25.4998 36.18C26.0098 36.45 26.5798 36.59 27.1898 36.59C27.8998 36.59 28.4598 36.4 28.8798 36.03C29.2998 35.66 29.4998 35.21 29.4998 34.7C29.4998 34.42 29.4198 34.13 29.2698 33.84C29.1098 33.55 28.8698 33.28 28.5398 33.03C28.3198 32.86 27.7098 32.5 26.7198 31.94C25.7298 31.38 25.0298 30.94 24.6098 30.61C24.1898 30.28 23.8698 29.92 23.6598 29.52C23.4398 29.12 23.3398 28.68 23.3398 28.2C23.3398 27.37 23.6598 26.65 24.2998 26.05C24.9398 25.45 25.7498 25.15 26.7298 25.15C27.3398 25.15 27.9998 25.3 28.6898 25.6C29.0098 25.74 29.2298 25.81 29.3598 25.81C29.5098 25.81 29.6298 25.77 29.7198 25.68C29.8098 25.59 29.8898 25.41 29.9498 25.15H30.2698L30.2598 25.16Z" fill="#1D3849"/>
<path d="M42.08 25.4301L42.21 28.1401H41.89C41.83 27.6601 41.74 27.3201 41.63 27.1201C41.45 26.7901 41.22 26.5501 40.93 26.3901C40.64 26.2301 40.25 26.1601 39.77 26.1601H38.14V35.0001C38.14 35.7101 38.22 36.1601 38.37 36.3301C38.59 36.5701 38.92 36.6901 39.37 36.6901H39.77V37.0101H34.86V36.6901H35.27C35.76 36.6901 36.11 36.5401 36.31 36.2501C36.44 36.0701 36.5 35.6501 36.5 35.0001V26.1601H35.11C34.57 26.1601 34.19 26.2001 33.96 26.2801C33.66 26.3901 33.41 26.6001 33.2 26.9001C32.99 27.2101 32.86 27.6201 32.82 28.1501H32.5L32.64 25.4401H42.09L42.08 25.4301Z" fill="#1D3849"/>
<path d="M48.7302 25.16C50.2302 25.16 51.5302 25.73 52.6402 26.87C53.7402 28.01 54.2902 29.44 54.2902 31.14C54.2902 32.84 53.7402 34.36 52.6302 35.52C51.5202 36.68 50.1802 37.26 48.6002 37.26C47.0202 37.26 45.6702 36.69 44.5802 35.56C43.5002 34.43 42.9502 32.96 42.9502 31.16C42.9502 29.36 43.5802 27.82 44.8302 26.66C45.9202 25.65 47.2202 25.15 48.7302 25.15V25.16ZM48.5702 25.78C47.5302 25.78 46.7002 26.16 46.0802 26.93C45.3002 27.89 44.9102 29.29 44.9102 31.13C44.9102 32.97 45.3102 34.47 46.1202 35.49C46.7402 36.26 47.5602 36.65 48.5802 36.65C49.6702 36.65 50.5602 36.23 51.2702 35.38C51.9802 34.53 52.3302 33.19 52.3302 31.37C52.3302 29.39 51.9402 27.91 51.1602 26.94C50.5302 26.17 49.6702 25.78 48.5702 25.78Z" fill="#1D3849"/>
<path d="M66.77 37.0001H63.68L59.76 31.5901C59.47 31.6001 59.23 31.6101 59.05 31.6101C58.98 31.6101 58.9 31.6101 58.81 31.6101C58.72 31.6101 58.64 31.6101 58.55 31.6001V34.9601C58.55 35.6901 58.63 36.1401 58.79 36.3201C59.01 36.5701 59.33 36.7001 59.76 36.7001H60.21V37.0201H55.25V36.7001H55.69C56.18 36.7001 56.53 36.5401 56.74 36.2201C56.86 36.0401 56.92 35.6301 56.92 34.9701V27.4901C56.92 26.7601 56.84 26.3101 56.68 26.1301C56.46 25.8801 56.13 25.7501 55.69 25.7501H55.25V25.4301H59.47C60.7 25.4301 61.61 25.5201 62.19 25.7001C62.77 25.8801 63.27 26.2101 63.68 26.6901C64.09 27.1701 64.29 27.7401 64.29 28.4101C64.29 29.1201 64.06 29.7401 63.59 30.2601C63.13 30.7801 62.41 31.1501 61.43 31.3701L63.82 34.6901C64.37 35.4501 64.84 35.9601 65.23 36.2101C65.62 36.4601 66.13 36.6201 66.77 36.6901V37.0101V37.0001ZM58.55 31.0501C58.66 31.0501 58.75 31.0501 58.83 31.0501C58.91 31.0501 58.98 31.0501 59.03 31.0501C60.13 31.0501 60.97 30.8101 61.53 30.3301C62.09 29.8501 62.37 29.2401 62.37 28.5001C62.37 27.7601 62.14 27.1901 61.69 26.7401C61.24 26.2901 60.64 26.0601 59.89 26.0601C59.56 26.0601 59.11 26.1101 58.55 26.2201V31.0401V31.0501Z" fill="#1D3849"/>
<path d="M74.6198 33.1301H70.1398L69.3498 34.9601C69.1598 35.4101 69.0598 35.7401 69.0598 35.9701C69.0598 36.1501 69.1398 36.3001 69.3098 36.4401C69.4798 36.5801 69.8398 36.6601 70.3998 36.7001V37.0201H66.7598V36.7001C67.2398 36.6101 67.5598 36.5001 67.6998 36.3701C67.9898 36.1001 68.3098 35.5401 68.6698 34.7101L72.7398 25.1801H73.0398L77.0698 34.8101C77.3898 35.5801 77.6898 36.0901 77.9498 36.3201C78.2098 36.5501 78.5798 36.6801 79.0498 36.7101V37.0301H74.4798V36.7101C74.9398 36.6901 75.2498 36.6101 75.4098 36.4801C75.5698 36.3501 75.6498 36.1901 75.6498 36.0001C75.6498 35.7501 75.5398 35.3501 75.3098 34.8101L74.6098 33.1501L74.6198 33.1301ZM74.3798 32.5001L72.4198 27.8201L70.3998 32.5001H74.3798Z" fill="#1D3849"/>
<path d="M87.4198 25.4301L87.5499 28.1401H87.2299C87.1699 27.6601 87.0798 27.3201 86.9698 27.1201C86.7898 26.7901 86.5598 26.5501 86.2698 26.3901C85.9798 26.2301 85.5898 26.1601 85.1098 26.1601H83.4799V35.0001C83.4799 35.7101 83.5598 36.1601 83.7098 36.3301C83.9298 36.5701 84.2598 36.6901 84.7098 36.6901H85.1098V37.0101H80.1998V36.6901H80.6098C81.0998 36.6901 81.4498 36.5401 81.6498 36.2501C81.7798 36.0701 81.8398 35.6501 81.8398 35.0001V26.1601H80.4498C79.9098 26.1601 79.5299 26.2001 79.2999 26.2801C78.9999 26.3901 78.7498 26.6001 78.5398 26.9001C78.3298 27.2101 78.1999 27.6201 78.1599 28.1501H77.8398L77.9799 25.4401H87.4298L87.4198 25.4301Z" fill="#1D3849"/>
<path d="M93.3799 36.69V37.01H88.4199V36.69H88.8299C89.3099 36.69 89.6499 36.55 89.8699 36.27C90.0099 36.09 90.0699 35.65 90.0699 34.96V27.48C90.0699 26.89 90.0299 26.51 89.9599 26.32C89.8999 26.18 89.7899 26.06 89.6099 25.95C89.3599 25.81 89.0999 25.74 88.8299 25.74H88.4199V25.42H93.3799V25.74H92.9599C92.4899 25.74 92.1399 25.88 91.9299 26.16C91.7899 26.34 91.7199 26.78 91.7199 27.48V34.96C91.7199 35.55 91.7599 35.93 91.8299 36.12C91.8899 36.26 92.0099 36.38 92.1899 36.49C92.4299 36.63 92.6899 36.69 92.9699 36.69H93.3899H93.3799Z" fill="#1D3849"/>
<path d="M100.2 25.16C101.7 25.16 103 25.73 104.11 26.87C105.21 28.01 105.76 29.44 105.76 31.14C105.76 32.84 105.21 34.36 104.1 35.52C102.99 36.68 101.65 37.26 100.07 37.26C98.4899 37.26 97.1399 36.69 96.0499 35.56C94.9699 34.43 94.4199 32.96 94.4199 31.16C94.4199 29.36 95.0499 27.82 96.2999 26.66C97.3899 25.65 98.6899 25.15 100.2 25.15V25.16ZM100.04 25.78C98.9999 25.78 98.1699 26.16 97.5499 26.93C96.7699 27.89 96.3799 29.29 96.3799 31.13C96.3799 32.97 96.7799 34.47 97.5899 35.49C98.2099 36.26 99.0299 36.65 100.05 36.65C101.14 36.65 102.03 36.23 102.74 35.38C103.45 34.53 103.8 33.19 103.8 31.37C103.8 29.39 103.41 27.91 102.63 26.94C102 26.17 101.14 25.78 100.04 25.78Z" fill="#1D3849"/>
<path d="M106.2 25.43H109.34L116.42 34.11V27.43C116.42 26.72 116.34 26.28 116.18 26.1C115.97 25.86 115.64 25.74 115.18 25.74H114.78V25.42H118.81V25.74H118.4C117.91 25.74 117.56 25.89 117.36 26.18C117.23 26.36 117.17 26.78 117.17 27.43V37.19H116.86L109.23 27.87V35C109.23 35.71 109.31 36.16 109.46 36.33C109.68 36.57 110.01 36.69 110.46 36.69H110.87V37.01H106.84V36.69H107.24C107.73 36.69 108.09 36.54 108.29 36.25C108.42 36.07 108.48 35.65 108.48 35V26.95C108.14 26.56 107.89 26.3 107.72 26.17C107.55 26.04 107.29 25.93 106.96 25.82C106.79 25.77 106.54 25.74 106.21 25.74V25.42L106.2 25.43Z" fill="#1D3849"/>
</g>
<defs>
<clipPath id="clip0_217_2">
<rect width="118.95" height="47.32" fill="white"/>
</clipPath>
</defs>
</svg>
